<svg id="Livello_1" data-name="Livello 1" xmlns="http://www.w3.org/2000/svg" viewBox="0 0 265.01 248.09"><defs><style>.cls-1{fill:#1d1d1b;}</style></defs><title>2 PIANO LOGO def</title><path class="cls-1" d="M234.3,342.28c-1.85-1.22-4.55-1.81-8.26-1.81h-9.85v32.38h4.69V361.21H226c3.58,0,6.33-.59,8.17-1.76,2.59-1.68,4-4.74,4-8.63S236.8,343.93,234.3,342.28Zm-2.85,13.57c-1,.72-2.49,1-4.87,1h-5.7V344.8h5.7c2.28,0,3.78.36,4.87,1.16,1.35,1,2.09,2.73,2.09,5S232.74,355,231.45,355.85Z" transform="translate(-122.58 -125.34)"/><rect class="cls-1" x="132.1" y="215.13" width="4.69" height="32.38"/><path class="cls-1" d="M291.45,340.47H286l-11.21,32.31,0,.07h5l2.38-7.19h13.1l2.42,7.16v0h4.92l-11.13-32.34Zm-2.78,4.87h0c.39,1.44,1.18,4.11,2.11,6.89l3,9.14H283.58l3-9.14C287.45,349.66,288.26,346.87,288.67,345.34Z" transform="translate(-122.58 -125.34)"/><path class="cls-1" d="M338.48,357.79c0,3.45.16,5.76.26,7.61,0,.65.07,1.25.1,1.82h0a60.3,60.3,0,0,0-3.22-6.36L323.78,340.5v0h-5.7v32.38h4.69l-.09-17.72c0-3.44-.16-5.74-.26-7.6,0-.65-.07-1.26-.1-1.83a62.42,62.42,0,0,0,3.23,6.36l11.82,20.77v0h5.71V340.47h-4.69Z" transform="translate(-122.58 -125.34)"/><path class="cls-1" d="M384.39,345.08a13.26,13.26,0,0,0-21,0,22.55,22.55,0,0,0,0,23.16,13.26,13.26,0,0,0,21,0,22.55,22.55,0,0,0,0-23.16Zm-1.49,11.58a16.25,16.25,0,0,1-2.17,8.81,8.23,8.23,0,0,1-13.72,0,18.95,18.95,0,0,1,0-17.61,8.22,8.22,0,0,1,13.72,0A16.21,16.21,0,0,1,382.9,356.66Z" transform="translate(-122.58 -125.34)"/><path class="cls-1" d="M130.81,368.52l2.29-2.2c6.58-6.49,8.91-10.84,8.91-16.63a9.55,9.55,0,0,0-2.76-7.05,10.54,10.54,0,0,0-7.54-2.75,11.53,11.53,0,0,0-9.12,4.1v4.27h.27c2.14-2,4.54-3.94,8.32-3.94s6.15,2.19,6.15,6c0,3.29-1.29,7.57-10.68,16.6l-2.52,2.38v3.55h18.62v-4.33Z" transform="translate(-122.58 -125.34)"/><rect class="cls-1" y="81.08" width="51.13" height="6.18"/><rect class="cls-1" x="37.28" y="106.31" width="38.89" height="6.18"/><rect class="cls-1" x="62.26" y="131.54" width="38.83" height="6.18"/><path class="cls-1" d="M260,321.32H253.4V299.11c0-47.73-13.48-91.23-38-122.47-22.28-28.44-51.94-44.75-81.38-44.75H122.58v-6.55h11.49c31.46,0,63,17.23,86.53,47.27C246,205,260,249.92,260,299.11Z" transform="translate(-122.58 -125.34)"/><path class="cls-1" d="M128.7,136.81v64.73h6.18V136.82H128.7Z" transform="translate(-122.58 -125.34)"/><path class="cls-1" d="M153.68,201.46h6.18V141.17q-3.08-1-6.18-1.83Z" transform="translate(-122.58 -125.34)"/><path class="cls-1" d="M178.66,226.68h6.18V154q-3.06-2.15-6.18-4Z" transform="translate(-122.58 -125.34)"/><path class="cls-1" d="M203.63,251.91h6.18V177.54q-3-3.71-6.18-7.1Z" transform="translate(-122.58 -125.34)"/><path class="cls-1" d="M228.61,277.11h6.18V221.28Q232,214,228.61,207.16Z" transform="translate(-122.58 -125.34)"/><path class="cls-1" d="M209.75,282.1v6.18h38.66c-.1-2.07-.21-4.13-.36-6.18Z" transform="translate(-122.58 -125.34)"/><rect class="cls-1" x="106.03" y="181.98" width="20.05" height="6.18"/></svg>